<?xml version="1.0" standalone="no"?>
<!DOCTYPE svg PUBLIC "-//W3C//DTD SVG 20010904//EN"
 "http://www.w3.org/TR/2001/REC-SVG-20010904/DTD/svg10.dtd">
<svg version="1.0" xmlns="http://www.w3.org/2000/svg"
 width="1536.000000pt" height="1024.000000pt" viewBox="0 0 1536.000000 1024.000000"
 preserveAspectRatio="xMidYMid meet">

<g transform="translate(0.000000,1024.000000) scale(0.100000,-0.100000)"
fill="#000000" stroke="none">
<path d="M6805 8435 c-16 -7 -23 -14 -14 -14 8 -1 24 6 35 14 24 18 18 18 -21
0z"/>
<path d="M6289 8063 c-13 -16 -12 -17 4 -4 9 7 17 15 17 17 0 8 -8 3 -21 -13z"/>
<path d="M5869 7883 c-13 -16 -12 -17 4 -4 9 7 17 15 17 17 0 8 -8 3 -21 -13z"/>
<path d="M6040 7833 l-65 -68 68 65 c62 60 72 70 64 70 -1 0 -32 -30 -67 -67z"/>
<path d="M5779 7803 c-13 -16 -12 -17 4 -4 9 7 17 15 17 17 0 8 -8 3 -21 -13z"/>
<path d="M5640 7675 c-41 -41 -72 -75 -69 -75 2 0 38 34 79 75 41 41 72 75 69
75 -2 0 -38 -34 -79 -75z"/>
<path d="M5884 7668 l-19 -23 23 19 c21 18 27 26 19 26 -2 0 -12 -10 -23 -22z"/>
<path d="M5834 7608 l-19 -23 23 19 c21 18 27 26 19 26 -2 0 -12 -10 -23 -22z"/>
<path d="M5519 7543 l-34 -38 38 34 c34 33 42 41 34 41 -2 0 -19 -17 -38 -37z"/>
<path d="M5789 7553 c-13 -16 -12 -17 4 -4 16 13 21 21 13 21 -2 0 -10 -8 -17
-17z"/>
<path d="M5449 7463 l-24 -28 28 24 c15 14 27 26 27 28 0 8 -8 1 -31 -24z"/>
<path d="M5729 7473 c-13 -16 -12 -17 4 -4 9 7 17 15 17 17 0 8 -8 3 -21 -13z"/>
<path d="M5404 7408 l-19 -23 23 19 c12 11 22 21 22 23 0 8 -8 2 -26 -19z"/>
<path d="M5369 7363 c-13 -16 -12 -17 4 -4 9 7 17 15 17 17 0 8 -8 3 -21 -13z"/>
<path d="M5329 7313 c-13 -16 -12 -17 4 -4 9 7 17 15 17 17 0 8 -8 3 -21 -13z"/>
<path d="M5360 7305 c5 -22 -1 -36 -11 -30 -5 4 -19 -1 -30 -11 -20 -18 -27
-6 -7 14 7 7 9 12 6 12 -4 0 -17 -15 -29 -32 -16 -22 -17 -28 -6 -19 9 7 17 9
17 3 0 -11 -21 -30 -33 -30 -5 0 -12 -4 -15 -8 -4 -4 -1 -4 7 1 9 5 12 3 9 -6
-3 -8 -11 -13 -17 -11 -7 1 -10 -2 -6 -8 4 -6 -13 -41 -37 -79 -61 -98 -70
-110 -53 -73 20 41 11 42 -10 2 -9 -17 -13 -36 -9 -42 4 -7 3 -8 -4 -4 -14 8
-56 -70 -46 -86 4 -6 3 -8 -3 -5 -23 14 -176 -347 -238 -563 -84 -291 -115
-522 -122 -890 -7 -382 17 -604 98 -883 33 -110 58 -160 33 -63 -68 259 -77
766 -19 1050 25 127 78 291 98 303 7 4 8 0 3 -13 -15 -35 -19 -435 -7 -589 50
-640 276 -1267 627 -1742 206 -278 423 -491 687 -677 168 -117 434 -239 572
-261 l40 -7 -30 20 c-75 48 -192 199 -244 314 -85 191 -120 344 -128 563 -8
230 15 380 104 702 l17 61 -66 70 c-117 124 -196 301 -233 521 -10 57 -13 66
-14 37 -2 -70 -11 -31 -18 70 -3 55 -7 100 -8 102 -2 2 -14 -28 -26 -67 -13
-39 -27 -67 -32 -64 -6 4 -8 -1 -4 -10 3 -10 2 -17 -3 -17 -5 0 -17 -25 -26
-55 -26 -81 -29 -59 -5 30 12 43 20 79 18 81 -10 11 -47 -150 -42 -184 4 -28
3 -32 -4 -17 -8 17 -10 16 -10 -11 -1 -17 -4 -47 -8 -65 -20 -86 -19 244 1
406 5 49 5 49 -5 10 -5 -22 -14 -89 -19 -150 l-9 -110 4 121 4 121 -34 12
c-24 8 -35 20 -40 39 -3 16 -16 39 -28 52 -12 14 -22 31 -23 38 -2 28 -5 32
-16 30 -7 -2 -14 8 -16 22 -2 14 -12 34 -23 46 -11 11 -16 24 -12 27 3 4 1 7
-5 7 -6 0 -9 7 -6 15 4 8 1 15 -6 15 -6 0 -8 4 -5 10 3 5 -3 17 -14 26 -14 13
-17 22 -11 34 7 13 4 20 -15 28 -14 7 -25 20 -25 31 0 11 -6 22 -12 24 -7 3
10 6 37 8 l50 2 -45 6 c-25 4 -55 12 -67 19 -50 28 -86 117 -99 242 -10 99
-17 87 -12 -21 3 -76 1 -96 -9 -92 -7 3 -13 -2 -13 -12 0 -9 4 -14 8 -11 5 3
9 -1 9 -9 0 -8 -4 -12 -8 -10 -11 8 -22 -187 -17 -318 3 -67 2 -97 -2 -67 -6
47 -7 49 -8 17 -3 -56 17 -219 39 -332 44 -218 142 -512 161 -484 6 10 7 7 3
-9 -8 -27 66 -172 144 -280 29 -41 51 -76 48 -78 -2 -2 -37 30 -77 70 -41 41
-77 73 -81 70 -4 -2 -11 1 -15 7 -4 8 -3 9 4 5 7 -4 12 -3 12 3 0 11 -20 26
-35 26 -5 0 -10 9 -10 20 0 11 -5 20 -12 20 -6 0 -15 4 -20 9 -5 5 -3 6 5 2
18 -11 15 0 -14 44 -15 22 -31 37 -37 33 -6 -3 -7 -1 -3 5 4 6 -9 42 -27 79
-33 64 -97 248 -112 322 -5 25 -10 30 -17 20 -7 -10 -7 -8 -3 8 3 13 -1 59
-10 103 -9 44 -22 124 -30 178 -11 83 -13 90 -15 47 l-2 -50 -8 50 c-11 65
-19 183 -20 263 0 38 -4 61 -10 57 -5 -3 -7 -20 -3 -37 4 -19 2 -29 -4 -25 -5
3 -10 23 -11 43 -1 20 -7 43 -13 50 -6 8 -9 14 -5 14 4 0 -1 11 -10 25 -9 14
-12 25 -8 25 5 0 3 4 -4 8 -17 11 -24 44 -26 114 0 32 -5 58 -9 58 -5 0 -5 5
-2 10 3 6 2 10 -2 10 -5 0 -8 17 -7 38 1 20 -4 44 -11 52 -8 8 -16 31 -18 50
-3 19 -6 35 -7 35 -5 0 -12 112 -13 227 -1 76 -4 138 -8 138 -3 0 -4 27 -3 60
0 33 -2 60 -5 60 -10 0 -7 64 4 72 6 5 6 8 -1 8 -11 0 -12 49 -1 66 3 6 2 16
-3 24 -4 7 -4 24 1 38 6 16 6 29 0 35 -5 5 -7 16 -4 23 3 8 0 14 -7 14 -7 0
-10 -8 -8 -18 3 -11 0 -19 -8 -19 -8 0 -14 2 -14 4 0 13 75 194 114 273 25 52
46 102 45 110 0 8 -5 3 -11 -13 -5 -15 -14 -25 -19 -22 -5 4 -6 0 -3 -8 3 -8
1 -18 -5 -22 -7 -4 -11 13 -11 49 0 38 4 56 13 56 9 0 9 2 -1 9 -11 7 -11 10
0 22 18 19 18 173 0 191 -7 7 -13 9 -12 3z m-70 -665 c0 -5 -5 -10 -11 -10 -5
0 -7 5 -4 10 3 6 8 10 11 10 2 0 4 -4 4 -10z m337 -1542 c-2 -13 -4 -3 -4 22
0 25 2 35 4 23 2 -13 2 -33 0 -45z m-120 -55 c-3 -10 -5 -4 -5 12 0 17 2 24 5
18 2 -7 2 -21 0 -30z m130 -25 c-3 -8 -6 -5 -6 6 -1 11 2 17 5 13 3 -3 4 -12
1 -19z m-114 -53 c5 -28 4 -34 -3 -20 -8 19 -14 73 -6 64 2 -2 6 -22 9 -44z
m124 -2 c-3 -10 -5 -4 -5 12 0 17 2 24 5 18 2 -7 2 -21 0 -30z m10 -55 c-3 -7
-5 -2 -5 12 0 14 2 19 5 13 2 -7 2 -19 0 -25z m-120 -30 c-3 -8 -6 -5 -6 6 -1
11 2 17 5 13 3 -3 4 -12 1 -19z m10 -40 c-3 -8 -6 -5 -6 6 -1 11 2 17 5 13 3
-3 4 -12 1 -19z m130 -20 c-3 -7 -5 -2 -5 12 0 14 2 19 5 13 2 -7 2 -19 0 -25z
m-188 -60 c38 -96 229 -479 309 -620 75 -132 158 -262 178 -279 8 -7 20 -22
26 -33 15 -30 -93 77 -157 154 -163 200 -282 435 -360 718 -16 56 -32 99 -35
97 -4 -3 -5 7 -2 21 2 14 6 24 7 22 2 -2 17 -37 34 -80z m151 -223 c0 -5 -5
-3 -10 5 -5 8 -10 20 -10 25 0 6 5 3 10 -5 5 -8 10 -19 10 -25z m52 -115 c12
-21 13 -27 3 -15 -9 11 -21 20 -28 20 -7 0 -11 11 -10 23 2 13 0 21 -5 19 -4
-3 -7 9 -8 26 l-1 32 14 -35 c8 -19 24 -51 35 -70z"/>
<path d="M5590 7260 c-6 -11 -8 -20 -6 -20 3 0 10 9 16 20 6 11 8 20 6 20 -3
0 -10 -9 -16 -20z"/>
<path d="M5204 7128 c-4 -7 -14 -24 -22 -38 -14 -24 -13 -24 3 -5 20 24 37 55
31 55 -3 0 -8 -6 -12 -12z"/>
<path d="M5496 7075 c-9 -26 -7 -32 5 -12 6 10 9 21 6 23 -2 3 -7 -2 -11 -11z"/>
<path d="M5759 6993 l-24 -28 28 24 c15 14 27 26 27 28 0 8 -8 1 -31 -24z"/>
<path d="M5709 6943 c-13 -16 -12 -17 4 -4 9 7 17 15 17 17 0 8 -8 3 -21 -13z"/>
<path d="M5431 6874 c0 -11 3 -14 6 -6 3 7 2 16 -1 19 -3 4 -6 -2 -5 -13z"/>
<path d="M5746 6765 c-9 -26 -7 -32 5 -12 6 10 9 21 6 23 -2 3 -7 -2 -11 -11z"/>
<path d="M5478 6763 c7 -3 16 -2 19 1 4 3 -2 6 -13 5 -11 0 -14 -3 -6 -6z"/>
<path d="M6939 6543 c-13 -16 -12 -17 4 -4 9 7 17 15 17 17 0 8 -8 3 -21 -13z"/>
<path d="M6879 6463 c-13 -16 -12 -17 4 -4 9 7 17 15 17 17 0 8 -8 3 -21 -13z"/>
<path d="M7432 6420 c0 -14 2 -19 5 -12 2 6 2 18 0 25 -3 6 -5 1 -5 -13z"/>
<path d="M5611 6384 c0 -11 3 -14 6 -6 3 7 2 16 -1 19 -3 4 -6 -2 -5 -13z"/>
<path d="M5591 6314 c0 -11 3 -14 6 -6 3 7 2 16 -1 19 -3 4 -6 -2 -5 -13z"/>
<path d="M5581 6274 c0 -11 3 -14 6 -6 3 7 2 16 -1 19 -3 4 -6 -2 -5 -13z"/>
<path d="M7141 6254 c0 -11 3 -14 6 -6 3 7 2 16 -1 19 -3 4 -6 -2 -5 -13z"/>
<path d="M5571 6234 c0 -11 3 -14 6 -6 3 7 2 16 -1 19 -3 4 -6 -2 -5 -13z"/>
<path d="M6720 6210 c-11 -22 -18 -40 -15 -40 2 0 14 18 25 40 11 22 18 40 15
40 -2 0 -14 -18 -25 -40z"/>
<path d="M7261 6204 c0 -11 3 -14 6 -6 3 7 2 16 -1 19 -3 4 -6 -2 -5 -13z"/>
<path d="M5561 6194 c0 -11 3 -14 6 -6 3 7 2 16 -1 19 -3 4 -6 -2 -5 -13z"/>
<path d="M5552 6150 c0 -14 2 -19 5 -12 2 6 2 18 0 25 -3 6 -5 1 -5 -13z"/>
<path d="M6715 6143 c-16 -15 -40 -62 -124 -243 l-11 -25 6 25 c14 55 -8 7
-40 -86 -153 -450 -138 -978 37 -1307 67 -127 72 -126 72 11 0 97 4 129 24
187 50 149 164 356 258 471 18 23 32 48 31 55 -2 7 2 13 8 14 7 0 41 32 78 71
63 69 85 102 49 73 -10 -8 -4 3 12 23 17 20 34 37 39 37 5 1 -1 -11 -15 -26
-13 -16 10 4 51 42 41 39 98 90 125 114 28 24 42 41 33 38 -9 -3 -19 -1 -21 6
-13 39 -217 -118 -363 -281 -120 -134 -173 -205 -240 -323 -30 -51 -54 -90
-54 -85 0 20 99 198 145 261 28 39 53 74 56 80 2 5 14 20 26 33 24 26 27 82 6
82 -7 0 -13 9 -13 21 0 15 -5 19 -16 15 -8 -3 -12 -2 -9 4 3 6 -1 10 -10 10
-13 0 -14 4 -4 22 10 18 9 20 -5 15 -19 -7 -20 -3 -6 24 7 12 7 19 1 19 -6 0
-7 7 -4 17 4 11 3 14 -6 9 -6 -4 -11 -4 -10 1 5 29 -3 83 -11 78 -5 -3 -10 -1
-10 5 0 6 -5 8 -12 4 -10 -6 -10 -4 0 8 10 13 10 18 1 24 -8 5 -9 3 -4 -6 5
-9 4 -11 -3 -6 -14 8 2 50 48 133 35 61 36 65 13 61 -12 -2 -19 10 -28 49 -7
29 -10 55 -7 57 6 7 -21 66 -30 66 -5 0 -7 3 -7 8 4 21 -2 43 -10 38 -4 -3 -7
6 -5 19 1 14 -2 25 -7 25 -6 0 -7 4 -4 10 3 5 2 17 -3 26 -8 14 -11 14 -27 -3z
m534 -612 c-46 -43 -86 -77 -89 -74 -6 6 150 153 163 153 5 0 -28 -36 -74 -79z
m-588 -638 c-12 -20 -14 -14 -5 12 4 9 9 14 11 11 3 -2 0 -13 -6 -23z"/>
<path d="M5673 6090 c0 -36 2 -50 4 -32 2 17 2 47 0 65 -2 17 -4 3 -4 -33z"/>
<path d="M6641 6055 c-22 -46 -42 -95 -45 -107 -6 -24 8 5 62 125 17 37 29 67
26 67 -2 0 -22 -38 -43 -85z"/>
<path d="M5541 6094 c0 -11 3 -14 6 -6 3 7 2 16 -1 19 -3 4 -6 -2 -5 -13z"/>
<path d="M5532 6040 c0 -14 2 -19 5 -12 2 6 2 18 0 25 -3 6 -5 1 -5 -13z"/>
<path d="M5641 6044 c0 -11 3 -14 6 -6 3 7 2 16 -1 19 -3 4 -6 -2 -5 -13z"/>
<path d="M7475 5985 c3 -66 23 -145 37 -145 4 0 8 -6 8 -14 0 -8 6 -16 13 -19
10 -4 5 19 -14 71 -15 43 -32 97 -38 122 l-10 45 4 -60z"/>
<path d="M5522 5980 c0 -14 2 -19 5 -12 2 6 2 18 0 25 -3 6 -5 1 -5 -13z"/>
<path d="M7889 5943 l-24 -28 28 24 c15 14 27 26 27 28 0 8 -8 1 -31 -24z"/>
<path d="M5622 5930 c0 -19 2 -27 5 -17 2 9 2 25 0 35 -3 9 -5 1 -5 -18z"/>
<path d="M5512 5915 c0 -16 2 -22 5 -12 2 9 2 23 0 30 -3 6 -5 -1 -5 -18z"/>
<path d="M7441 5904 c0 -11 3 -14 6 -6 3 7 2 16 -1 19 -3 4 -6 -2 -5 -13z"/>
<path d="M7704 5888 l-19 -23 23 19 c21 18 27 26 19 26 -2 0 -12 -10 -23 -22z"/>
<path d="M7819 5873 c-13 -16 -12 -17 4 -4 9 7 17 15 17 17 0 8 -8 3 -21 -13z"/>
<path d="M5612 5855 c0 -16 2 -22 5 -12 2 9 2 23 0 30 -3 6 -5 -1 -5 -18z"/>
<path d="M5503 5825 c0 -22 2 -30 4 -17 2 12 2 30 0 40 -3 9 -5 -1 -4 -23z"/>
<path d="M7460 5845 c0 -5 5 -17 10 -25 5 -8 10 -10 10 -5 0 6 -5 17 -10 25
-5 8 -10 11 -10 5z"/>
<path d="M7568 5796 c-26 -20 -22 -29 5 -11 13 8 27 12 32 8 4 -5 5 -2 1 5 -9
15 -16 15 -38 -2z"/>
<path d="M7690 5733 l-55 -58 58 55 c31 30 57 56 57 57 0 8 -10 -1 -60 -54z"/>
<path d="M5493 5715 c0 -27 2 -38 4 -22 2 15 2 37 0 50 -2 12 -4 0 -4 -28z"/>
<path d="M5603 5725 c0 -22 2 -30 4 -17 2 12 2 30 0 40 -3 9 -5 -1 -4 -23z"/>
<path d="M7512 5745 c15 -16 20 -17 30 -6 11 11 10 13 0 7 -7 -4 -21 -2 -30 5
-15 12 -15 11 0 -6z"/>
<path d="M6330 5730 c-6 -11 -8 -20 -6 -20 3 0 10 9 16 20 6 11 8 20 6 20 -3
0 -10 -9 -16 -20z"/>
<path d="M5795 5680 c10 -11 20 -20 23 -20 3 0 -3 9 -13 20 -10 11 -20 20 -23
20 -3 0 3 -9 13 -20z"/>
<path d="M6264 5609 c-25 -50 -44 -93 -42 -95 2 -2 25 39 51 91 26 52 45 95
42 95 -3 0 -25 -41 -51 -91z"/>
<path d="M7574 5608 l-29 -33 33 29 c30 28 37 36 29 36 -2 0 -16 -15 -33 -32z"/>
<path d="M5484 5490 c0 -80 2 -112 3 -72 2 39 2 105 0 145 -1 39 -3 7 -3 -73z"/>
<path d="M5594 5440 c0 -85 2 -120 3 -77 2 42 2 112 0 155 -1 42 -3 7 -3 -78z"/>
<path d="M7514 5538 l-19 -23 23 19 c12 11 22 21 22 23 0 8 -8 2 -26 -19z"/>
<path d="M7469 5483 c-13 -16 -12 -17 4 -4 9 7 17 15 17 17 0 8 -8 3 -21 -13z"/>
<path d="M6171 5389 c-12 -35 -21 -68 -20 -73 0 -6 11 20 25 58 13 38 22 71
20 73 -2 2 -13 -24 -25 -58z"/>
<path d="M7429 5433 c-13 -16 -12 -17 4 -4 16 13 21 21 13 21 -2 0 -10 -8 -17
-17z"/>
<path d="M7394 5388 l-19 -23 23 19 c21 18 27 26 19 26 -2 0 -12 -10 -23 -22z"/>
<path d="M7359 5343 c-13 -16 -12 -17 4 -4 9 7 17 15 17 17 0 8 -8 3 -21 -13z"/>
<path d="M7277 5228 c-71 -103 -106 -158 -90 -143 16 16 164 235 159 235 -3 0
-34 -42 -69 -92z"/>
<path d="M5493 5250 c0 -36 2 -50 4 -32 2 17 2 47 0 65 -2 17 -4 3 -4 -33z"/>
<path d="M6136 5274 c-4 -14 -5 -28 -3 -31 3 -2 8 8 11 23 4 14 5 28 3 31 -3
2 -8 -8 -11 -23z"/>
<path d="M7384 5170 c-97 -109 -120 -131 -91 -87 18 27 8 51 -16 41 -10 -3
-17 -1 -17 5 0 26 -21 6 -70 -69 -57 -87 -78 -108 -36 -35 15 25 25 45 22 45
-12 0 -86 -141 -80 -152 4 -7 3 -8 -4 -4 -14 8 -36 -30 -26 -46 5 -7 3 -8 -6
-3 -10 6 -12 4 -7 -9 4 -10 3 -15 -3 -11 -27 17 -246 -523 -275 -677 l-7 -37
38 11 c59 16 246 4 329 -22 237 -74 377 -179 453 -338 63 -133 76 -249 43
-408 -90 -437 -517 -942 -865 -1024 l-69 -16 169 -42 c293 -71 435 -93 744
-113 417 -26 865 20 1214 126 492 149 868 368 1196 695 136 136 254 276 244
291 -3 5 0 8 8 7 7 -2 12 5 12 14 -1 10 2 16 6 13 8 -5 60 58 60 72 0 4 -7 -1
-15 -11 -8 -11 -15 -15 -15 -9 0 6 7 16 15 23 8 7 15 9 15 5 0 -4 7 -2 15 5
21 18 19 35 -2 19 -16 -13 -17 -12 -4 3 7 10 17 16 21 13 4 -3 31 32 60 77 61
95 144 248 136 248 -3 0 -18 -23 -32 -52 -30 -59 -124 -213 -149 -243 -20 -24
-9 0 18 38 56 81 147 259 147 288 0 19 -2 20 -17 8 -11 -10 -14 -10 -9 -1 4 6
5 12 3 12 -3 0 -15 -17 -28 -37 -17 -29 -24 -34 -27 -20 -2 9 -8 14 -14 11 -6
-4 -8 1 -3 15 7 22 6 22 -14 5 -26 -23 -51 -26 -51 -7 0 11 -3 13 -13 5 -8 -7
-18 -7 -27 -2 -9 5 -20 5 -28 -2 -7 -7 -32 -12 -55 -12 -23 -1 -48 -5 -54 -9
-9 -6 -11 -3 -7 7 10 26 -7 42 -22 21 -8 -10 -17 -16 -20 -12 -4 4 -13 2 -20
-4 -9 -7 -14 -6 -20 3 -4 7 -4 10 1 6 10 -9 34 21 34 42 0 8 -4 5 -10 -8 -7
-18 -14 -22 -30 -17 -14 5 -25 1 -34 -12 -8 -10 -15 -13 -15 -8 0 6 5 16 10
21 8 8 6 15 -5 24 -12 10 -15 10 -15 -3 0 -10 -6 -14 -15 -11 -8 4 -13 10 -10
14 3 5 1 11 -4 14 -5 4 -13 1 -17 -5 -5 -9 -11 -6 -21 7 -11 15 -15 16 -22 5
-7 -10 -13 -11 -27 -1 -11 6 -12 10 -4 7 8 -2 20 1 27 8 9 10 7 14 -9 18 -15
4 -27 -2 -40 -19 -19 -23 -66 -36 -52 -13 5 8 1 8 -14 0 -16 -8 -21 -7 -26 5
-3 9 -3 20 0 26 4 6 -1 8 -13 4 -10 -3 -28 1 -39 9 -25 19 -34 19 -35 -2 0
-14 -3 -13 -11 5 -14 27 -57 31 -59 5 -1 -10 -1 -22 0 -27 1 -5 -5 -3 -14 4
-8 7 -18 10 -22 7 -3 -4 -17 3 -31 13 -14 12 -40 20 -62 20 -20 0 -40 3 -43 7
-11 10 -56 12 -62 2 -4 -5 -13 -9 -21 -9 -8 0 -13 4 -9 9 3 5 -4 12 -15 16
-11 3 -20 11 -20 17 0 6 -9 0 -21 -13 -11 -13 -18 -19 -15 -13 6 12 -16 26
-42 28 -7 1 -16 7 -21 14 -7 11 -9 10 -14 -3 -5 -13 -11 -14 -27 -5 -28 15
-25 32 14 66 27 24 33 36 29 58 -4 21 -10 25 -24 21 -24 -8 -24 9 -1 33 65 69
52 62 -58 -29 -69 -57 -181 -149 -250 -204 -185 -150 -269 -225 -345 -309 -37
-42 -70 -74 -73 -71 -3 2 1 11 8 20 7 8 10 15 7 15 -3 0 -16 -15 -28 -32 -16
-22 -17 -28 -6 -19 25 20 21 5 -14 -45 -16 -24 -35 -42 -40 -38 -14 9 -108
-198 -125 -275 -22 -103 -18 -159 14 -222 53 -105 176 -149 419 -151 l138 -1
-55 -14 c-35 -9 -123 -16 -240 -18 -183 -4 -225 -1 -215 14 2 5 -7 13 -21 20
-31 14 -37 14 -28 -1 5 -7 3 -8 -5 -4 -7 5 -10 10 -7 13 3 3 -6 14 -20 25 -27
22 -64 87 -64 115 0 13 -3 14 -8 5 -5 -7 -7 16 -5 50 5 73 45 242 73 305 11
24 17 51 14 61 -4 12 -3 13 3 5 6 -9 19 7 41 52 36 73 38 79 20 69 -8 -4 -10
-3 -5 2 5 5 12 9 16 9 4 0 43 51 85 114 43 63 70 108 61 101 -9 -8 -40 -49
-68 -93 -28 -43 -53 -74 -55 -68 -2 6 -9 8 -15 4 -6 -4 1 13 15 38 15 24 32
43 38 41 6 -1 9 2 5 8 -9 14 14 52 27 44 6 -4 8 -3 5 3 -4 5 30 61 74 124 43
62 77 120 74 127 -3 8 -5 32 -5 53 0 29 -3 38 -12 33 -10 -5 -10 -4 -1 6 9 10
6 24 -15 64 -14 28 -31 54 -36 58 -7 5 -7 8 -1 8 6 1 -2 8 -17 16 -16 8 -28
20 -28 27 0 8 4 6 10 -3 5 -8 10 -10 10 -4 0 5 -7 19 -16 30 -8 10 -13 13 -9
7 3 -7 1 -13 -6 -13 -6 0 -10 10 -7 23 2 12 -4 29 -14 40 -16 15 -18 15 -18 1
0 -14 -2 -14 -15 0 -8 8 -15 19 -15 24 0 6 -13 15 -29 20 -18 6 -31 20 -35 36
-4 15 -11 24 -17 20 -7 -4 -9 3 -7 17 2 15 -2 23 -9 22 -8 -2 -10 4 -6 14 4
11 3 14 -5 9 -7 -4 -12 -1 -12 8 0 9 -5 16 -11 16 -6 0 -8 -7 -5 -16 3 -9 2
-12 -5 -9 -6 4 -8 12 -6 19 6 15 -13 40 -35 49 -11 4 -19 18 -19 34 -1 21 -3
18 -8 -12 l-6 -40 -19 34 c-10 18 -13 30 -8 27 6 -4 8 2 5 14 -3 11 -10 23
-16 27 -6 4 -7 1 -3 -8 4 -8 1 -6 -8 4 -8 11 -12 26 -9 35 4 10 2 13 -5 8 -7
-4 -12 -1 -12 8 0 8 -11 23 -25 34 -25 20 -36 50 -12 36 8 -5 8 -3 -2 9 -7 9
-18 14 -24 10 -5 -3 -7 -2 -4 3 3 6 2 16 -4 24 -6 11 -9 6 -9 -19 l0 -34 -20
24 c-11 13 -24 30 -30 37 -8 9 -7 12 2 12 10 0 10 2 -1 9 -11 7 -11 9 0 14 10
4 9 6 -3 6 -9 1 -19 7 -21 14 -3 6 -6 0 -6 -15 -1 -27 -2 -27 -19 -10 -11 9
-17 20 -16 23 2 4 -3 12 -11 19 -8 7 -15 21 -15 31 0 10 -5 21 -12 25 -7 5 -8
3 -3 -6 6 -9 4 -11 -4 -6 -7 5 -10 14 -7 22 3 7 0 16 -6 20 -7 5 -8 2 -3 -7 6
-11 5 -11 -4 -3 -7 6 -13 18 -15 26 -3 21 -32 49 -48 46 -6 -2 -12 2 -13 9 0
6 -4 15 -9 20 -5 5 -6 3 -2 -4 9 -16 1 -16 -24 -3 -12 6 -16 17 -13 30 4 15 0
20 -16 20 -12 0 -19 4 -16 10 3 6 -1 7 -9 4 -15 -6 -20 4 -17 31 0 6 -14 17
-32 24 -30 14 -53 36 -56 54 0 4 -6 14 -13 21 -11 12 -14 11 -18 -6 -7 -27
-24 -27 -28 0 -2 13 -9 21 -15 19 -7 -2 -18 3 -25 12 -8 9 -11 10 -7 4 3 -7 1
-13 -4 -13 -6 0 -11 7 -11 15 0 8 -4 15 -10 15 -5 0 -7 7 -4 15 15 38 -23 6
-112 -95z m-264 -220 c-6 -11 -13 -20 -16 -20 -2 0 0 9 6 20 6 11 13 20 16 20
2 0 0 -9 -6 -20z m1029 -304 c-3 -3 -11 5 -18 17 -13 21 -12 21 5 5 10 -10 16
-20 13 -22z m1176 -696 c3 -5 1 -10 -4 -10 -6 0 -11 5 -11 10 0 6 2 10 4 10 3
0 8 -4 11 -10z m-905 -421 c0 -4 -4 -11 -10 -14 -5 -3 -10 -1 -10 5 0 6 -5 8
-12 4 -6 -4 -8 -3 -5 3 7 11 37 13 37 2z m-167 -639 c3 -11 1 -18 -4 -14 -5 3
-9 12 -9 20 0 20 7 17 13 -6z m594 -136 c-3 -3 -12 -4 -19 -1 -8 3 -5 6 6 6
11 1 17 -2 13 -5z m-354 -11 c-7 -2 -19 -2 -25 0 -7 3 -2 5 12 5 14 0 19 -2
13 -5z m257 -4 c-25 -4 -88 -7 -140 -6 l-95 1 105 6 c58 3 121 6 140 7 30 0
29 -1 -10 -8z"/>
<path d="M6121 5214 c0 -11 3 -14 6 -6 3 7 2 16 -1 19 -3 4 -6 -2 -5 -13z"/>
<path d="M6256 5174 c-4 -9 -4 -19 -1 -22 2 -3 7 3 11 12 4 9 4 19 1 22 -2 3
-7 -3 -11 -12z"/>
<path d="M6111 5164 c0 -11 3 -14 6 -6 3 7 2 16 -1 19 -3 4 -6 -2 -5 -13z"/>
<path d="M6102 5120 c0 -14 2 -19 5 -12 2 6 2 18 0 25 -3 6 -5 1 -5 -13z"/>
<path d="M6254 5015 c0 -71 1 -99 3 -62 2 37 2 96 0 130 -2 34 -3 4 -3 -68z"/>
<path d="M7791 5034 c0 -11 3 -14 6 -6 3 7 2 16 -1 19 -3 4 -6 -2 -5 -13z"/>
<path d="M6176 4984 c-9 -26 -14 -49 -12 -51 2 -2 11 17 20 43 9 26 14 49 12
51 -2 2 -11 -17 -20 -43z"/>
<path d="M9499 4553 c-13 -16 -12 -17 4 -4 16 13 21 21 13 21 -2 0 -10 -8 -17
-17z"/>
<path d="M10861 4554 c0 -11 3 -14 6 -6 3 7 2 16 -1 19 -3 4 -6 -2 -5 -13z"/>
<path d="M10536 4425 c-9 -26 -7 -32 5 -12 6 10 9 21 6 23 -2 3 -7 -2 -11 -11z"/>
<path d="M9339 4383 c-13 -16 -12 -17 4 -4 9 7 17 15 17 17 0 8 -8 3 -21 -13z"/>
<path d="M9040 4370 c-6 -11 -8 -20 -6 -20 3 0 10 9 16 20 6 11 8 20 6 20 -3
0 -10 -9 -16 -20z"/>
<path d="M9249 4293 l-24 -28 28 24 c25 23 32 31 24 31 -2 0 -14 -12 -28 -27z"/>
<path d="M10429 4208 c-6 -13 -23 -43 -37 -68 -14 -25 -21 -40 -15 -35 15 14
76 125 69 125 -3 0 -11 -10 -17 -22z"/>
<path d="M10514 4198 l-19 -23 23 19 c21 18 27 26 19 26 -2 0 -12 -10 -23 -22z"/>
<path d="M8909 4173 c-13 -16 -12 -17 4 -4 16 13 21 21 13 21 -2 0 -10 -8 -17
-17z"/>
<path d="M8879 4133 c-13 -16 -12 -17 4 -4 16 13 21 21 13 21 -2 0 -10 -8 -17
-17z"/>
<path d="M10439 4113 l-34 -38 38 34 c34 33 42 41 34 41 -2 0 -19 -17 -38 -37z"/>
<path d="M9304 4125 c-10 -8 -14 -15 -8 -15 6 0 17 7 24 15 16 19 9 19 -16 0z"/>
<path d="M8849 4093 c-13 -16 -12 -17 4 -4 9 7 17 15 17 17 0 8 -8 3 -21 -13z"/>
<path d="M10716 4095 c-9 -26 -7 -32 5 -12 6 10 9 21 6 23 -2 3 -7 -2 -11 -11z"/>
<path d="M8790 4020 c-23 -27 -40 -50 -37 -50 3 0 24 23 47 50 23 28 40 50 37
50 -3 0 -24 -22 -47 -50z"/>
<path d="M8979 4043 l-24 -28 28 24 c15 14 27 26 27 28 0 8 -8 1 -31 -24z"/>
<path d="M10696 4045 c-9 -26 -7 -32 5 -12 6 10 9 21 6 23 -2 3 -7 -2 -11 -11z"/>
<path d="M10337 4043 c-4 -3 -7 -11 -7 -17 0 -6 5 -5 12 2 6 6 9 14 7 17 -3 3
-9 2 -12 -2z"/>
<path d="M10652 3938 c-18 -39 -30 -73 -28 -75 2 -2 17 29 35 68 18 39 30 73
28 75 -2 2 -18 -29 -35 -68z"/>
<path d="M8684 3888 c-32 -40 -73 -92 -92 -115 -19 -24 -32 -43 -29 -43 2 0
31 33 63 73 32 39 73 91 92 115 19 23 32 42 29 42 -2 0 -31 -33 -63 -72z"/>
<path d="M8839 3913 l-24 -28 28 24 c15 14 27 26 27 28 0 8 -8 1 -31 -24z"/>
<path d="M9620 3910 c0 -5 5 -10 11 -10 5 0 7 5 4 10 -3 6 -8 10 -11 10 -2 0
-4 -4 -4 -10z"/>
<path d="M8779 3853 l-24 -28 28 24 c15 14 27 26 27 28 0 8 -8 1 -31 -24z"/>
<path d="M8699 3763 l-34 -38 38 34 c34 33 42 41 34 41 -2 0 -19 -17 -38 -37z"/>
<path d="M8619 3673 c-13 -16 -12 -17 4 -4 16 13 21 21 13 21 -2 0 -10 -8 -17
-17z"/>
<path d="M8589 3633 c-13 -16 -12 -17 4 -4 16 13 21 21 13 21 -2 0 -10 -8 -17
-17z"/>
<path d="M8435 3594 c-9 -14 -15 -27 -13 -30 2 -2 12 10 22 26 21 37 15 40 -9
4z"/>
<path d="M8559 3593 c-13 -16 -12 -17 4 -4 9 7 17 15 17 17 0 8 -8 3 -21 -13z"/>
<path d="M8475 3474 c-9 -14 -14 -28 -12 -31 3 -3 13 9 22 26 19 38 14 41 -10
5z"/>
<path d="M8418 2763 c7 -3 16 -2 19 1 4 3 -2 6 -13 5 -11 0 -14 -3 -6 -6z"/>
</g>
</svg>
